<?xml version="1.0" encoding="UTF-8"?>
<svg width="20px" height="20px" viewBox="0 0 20 20" version="1.1" xmlns="http://www.w3.org/2000/svg" xmlns:xlink="http://www.w3.org/1999/xlink">
    <!-- Generator: Sketch 48.2 (47327) - http://www.bohemiancoding.com/sketch -->
    <title>Rectangle 2@2x</title>
    <desc>Created with Sketch.</desc>
    <defs></defs>
    <g id="1-0商户列表" stroke="none" stroke-width="1" fill="none" fill-rule="evenodd" transform="translate(-20.000000, -406.000000)">
        <g id="侧边菜单">
            <g id="5" transform="translate(0.000000, 390.000000)">
                <g id="商户管理" transform="translate(20.000000, 16.000000)">
                    <rect id="Rectangle-2" x="0" y="0" width="20" height="20"></rect>
                    <path d="M2.68111808,16.4580642 L2.68111808,17.5626527 C2.68111808,17.8041761 2.87632273,18 3.11717127,18 L9.41727979,18 L9.41727979,9.73957247 L2.68111808,9.73957247 L2.68111808,16.4580642 Z M15.8271524,17.9999801 L16.8525188,17.9999801 C17.0933673,17.9999801 17.2885521,17.8041761 17.2885521,17.5626328 L17.2885521,17.4113316 C17.3013602,17.3543617 17.308361,17.2949583 17.308361,17.2336798 L17.308361,9.73955252 L10.5728357,9.73955252 L10.5728357,17.9999801 L15.8236123,17.9999003 C15.8247658,17.9999003 15.8259591,17.9999801 15.8271524,17.9999801 Z M3.46145939,5.33787427 L2.4360532,5.33787427 C2.19522455,5.33787427 2,5.53367817 2,5.77520158 L2,9.14290514 L9.36706158,9.14290514 L9.36706158,5.45416774 C9.63823993,5.4277773 9.87831282,5.39578164 10.0739351,5.3693912 C10.079663,5.3693912 10.0853511,5.36404529 10.0861068,5.36326734 L10.0863057,5.36346681 L10.111743,5.36346681 L10.111743,5.35644532 L10.0801801,5.35644532 L10.079842,5.35620595 L10.1120214,5.35620595 L10.1120214,5.36300802 C10.2631136,5.38854072 10.44018,5.40932594 10.6233522,5.4277773 L10.6233522,9.14250619 L17.9900558,9.14250619 L17.9900558,6.97270525 C17.9964996,6.94274422 18,6.91166614 18,6.87979015 L18,5.77520158 C18,5.53367817 17.8047953,5.33787427 17.5639667,5.33787427 L16.5385804,5.33787427 C16.5168821,5.33787427 16.4955419,5.33950995 16.474679,5.34258186 L13.8676079,5.34258186 C14.7451836,5.14629921 15.4339388,4.73963109 15.5470243,3.9931985 C15.6797197,3.14148342 14.6510717,1.85046622 13.4064555,2.01417472 C11.9170927,2.21769829 10.8252394,3.50873543 10.0548622,4.51069451 C9.29110777,3.52788496 8.293963,2.38080837 6.86681111,2.04758666 C5.48432856,1.72613393 4.53742189,3.13486087 4.56287904,4.00642364 C4.58762022,4.74621374 5.26406452,5.14683779 6.1656853,5.34286112 L3.52748888,5.34286112 C3.5056358,5.33953223 3.48356307,5.3378652 3.46145939,5.33787427 Z M13.0978273,2.8071247 C14.0952107,2.32278131 15.0230643,3.63312756 14.5496209,4.26254856 C14.1836744,4.74032925 13.0284765,4.78586922 12.4033243,4.81217987 C11.891735,4.83797189 11.3737018,4.82582391 10.8630671,4.77958578 C11.4563779,4.03207603 12.1441785,3.27285715 13.0978273,2.8071247 Z M5.56032214,4.2684131 C5.30845543,3.99351766 5.47830238,3.6196431 5.63629583,3.33848417 C5.92662672,2.84059648 6.33006293,2.53821349 7.01881816,2.82005063 C7.9781153,3.21369309 8.6849093,4.0466576 9.2598432,4.79243192 C8.0407041,4.92412481 6.22292412,4.97632722 5.56032214,4.2684131 Z" id="Shape" fill="#C2D7E6" fill-rule="nonzero"></path>
                </g>
            </g>
        </g>
    </g>
</svg>