<?xml version="1.0" encoding="UTF-8"?>
<svg width="20px" height="20px" viewBox="0 0 20 20" version="1.1" xmlns="http://www.w3.org/2000/svg" xmlns:xlink="http://www.w3.org/1999/xlink">
    <!-- Generator: Sketch 48.2 (47327) - http://www.bohemiancoding.com/sketch -->
    <title>Rectangle 2@2x</title>
    <desc>Created with Sketch.</desc>
    <defs></defs>
    <g id="1-0商户列表" stroke="none" stroke-width="1" fill="none" fill-rule="evenodd" transform="translate(-20.000000, -256.000000)">
        <g id="侧边菜单">
            <g id="2" transform="translate(0.000000, 240.000000)">
                <g id="商户管理" transform="translate(20.000000, 16.000000)">
                    <rect id="Rectangle-2" x="0" y="0" width="20" height="20"></rect>
                    <path d="M16.2998477,10.509197 C16.2998477,14.4579908 13.0987177,17.6591208 9.14992383,17.6591208 C5.20112994,17.6591208 2,14.4579908 2,10.509197 C2,6.56040307 5.20112994,3.35927313 9.14992383,3.35927313 L9.14992383,5.74258108 C6.51739457,5.74258108 4.38330794,7.8766677 4.38330794,10.509197 C4.38330794,13.1417262 6.51739457,15.2758129 9.14992383,15.2758129 C11.7824531,15.2758129 13.9165397,13.1417262 13.9165397,10.509197 L16.2998477,10.509197 Z M8.06744546,11.8856868 L10.3194955,11.8856868 L16.1001101,6.14399216 L13.8480601,3.92555477 L8.06744546,9.66724942 L8.06744546,11.8856868 Z M17.8222066,4.33519724 C18.0592645,4.10167752 18.0592645,3.75139793 17.8222066,3.5178782 L16.4591237,2.1751398 C16.2220658,1.94162007 15.8664789,1.94162007 15.629421,2.1751398 L14.5626605,3.22597855 L16.8147105,5.44441592 L17.8222066,4.33519724 Z" id="Shape" fill="#C2D7E6" fill-rule="nonzero"></path>
                </g>
            </g>
        </g>
    </g>
</svg>