<?xml version="1.0" encoding="UTF-8"?>
<svg width="20px" height="20px" viewBox="0 0 20 20" version="1.1" xmlns="http://www.w3.org/2000/svg" xmlns:xlink="http://www.w3.org/1999/xlink">
    <!-- Generator: Sketch 48.2 (47327) - http://www.bohemiancoding.com/sketch -->
    <title>Rectangle 2@2x</title>
    <desc>Created with Sketch.</desc>
    <defs></defs>
    <g id="1-0商户列表" stroke="none" stroke-width="1" fill="none" fill-rule="evenodd" transform="translate(-20.000000, -306.000000)">
        <g id="侧边菜单">
            <g id="3" transform="translate(0.000000, 290.000000)">
                <g id="商户管理" transform="translate(20.000000, 16.000000)">
                    <rect id="Rectangle-2" x="0" y="0" width="20" height="20"></rect>
                    <path d="M18.9356278,14.3744677 C18.983921,14.4759065 19.0052028,14.615039 18.9989274,14.7923423 C18.9930158,14.9694547 18.9658224,15.1341616 18.9174382,15.2860813 C18.8930642,15.3875201 18.8541386,15.4540327 18.7998427,15.485619 C18.7452741,15.5172053 18.6942524,15.5330462 18.6460501,15.5330462 C18.465064,15.5201636 18.2900805,15.5615788 18.1211905,15.6565287 C17.9524824,15.7514785 17.8315218,15.8875573 17.7593093,16.0645743 C17.6870058,16.2417821 17.6688163,16.4161271 17.7050135,16.5870368 C17.7410288,16.7579464 17.8255193,16.9130152 17.958394,17.0523385 C17.97049,17.0776267 17.9884067,17.1093084 18.0126898,17.1472883 C18.0247858,17.1726719 18.036791,17.2074073 18.0487051,17.2516854 C18.0609831,17.2960589 18.0609831,17.337188 18.0487051,17.3751679 C18.0246039,17.5144912 17.9311096,17.66956 17.7682222,17.8404697 C17.6053347,18.0113793 17.4517239,18.10318 17.3069351,18.1159672 C17.2342678,18.128659 17.1769707,18.1220746 17.134771,18.0969773 C17.0877466,18.0682293 17.0424039,18.0365546 16.998986,18.0021229 C16.9023994,17.9133758 16.7697066,17.8312132 16.6008166,17.755158 C16.4321085,17.6792935 16.2629457,17.6729954 16.0942375,17.7362634 C15.9253475,17.8122233 15.7986573,17.9325567 15.7139849,18.0969773 C15.6294944,18.2615888 15.5872037,18.4325938 15.5872037,18.6097062 C15.5872037,18.749125 15.532726,18.8502776 15.4243163,18.9137365 C15.3276388,18.9770045 15.1770293,19.0054418 14.9716692,18.9991436 C14.766491,18.9930363 14.5977829,18.9580146 14.4650901,18.8947465 C14.3684127,18.8567666 14.3202103,18.7682104 14.3202103,18.6289825 C14.3202103,18.4518701 14.2778287,18.274376 14.1933382,18.0972636 C14.1088477,17.9201512 13.9822484,17.7869351 13.8132675,17.6983789 C13.6443775,17.6223237 13.4663927,17.6128764 13.2793131,17.6698463 C13.0920517,17.7269116 12.9384409,17.8249151 12.8178441,17.964143 C12.7333537,18.05289 12.6188504,18.0655818 12.4739706,18.0021229 C12.3412778,17.9388548 12.196489,17.8216705 12.039786,17.6507609 C11.8827192,17.4798512 11.7922261,17.3247825 11.7683069,17.1855545 C11.7442057,17.0841157 11.792499,16.9700805 11.9131867,16.8437352 C12.0098642,16.7547973 12.0852599,16.6282612 12.1393738,16.463936 C12.1936696,16.2993245 12.1905774,16.1284149 12.130279,15.951207 C12.0940818,15.8372673 12.0336015,15.7486157 11.9492929,15.6853476 C11.8649844,15.6220795 11.7743094,15.5714078 11.6779048,15.5333325 C11.5663095,15.4947688 11.4509785,15.4693248 11.3340313,15.457468 C11.2374447,15.4320845 11.1711438,15.3941046 11.1350376,15.3434329 C11.0383601,15.2421849 10.9930681,15.0681261 10.9993435,14.8211612 C11.005346,14.5743871 11.0446355,14.3876366 11.1169389,14.261005 C11.1894243,14.1470653 11.2677304,14.0962981 11.3523118,14.1089899 C11.5332978,14.1089899 11.7111917,14.0648073 11.8861752,13.9758693 C12.0611587,13.8873131 12.1848477,13.7544788 12.2571511,13.5770801 C12.3296365,13.3998723 12.3356391,13.2162709 12.2752497,13.0263713 C12.2149514,12.8364717 12.1244583,12.6717647 12.0038616,12.5324414 C11.9192802,12.4437898 11.9072751,12.3236473 11.9678463,12.171823 C12.0282356,12.0325951 12.1277325,11.8931763 12.2662459,11.7539484 C12.4050322,11.6147205 12.5348147,11.5323671 12.6554114,11.5069835 C12.7399019,11.4942917 12.8243014,11.5323671 12.9087919,11.6209233 C13.0294796,11.7474594 13.1772697,11.8329619 13.3522532,11.8773355 C13.5272367,11.921709 13.6990371,11.9120709 13.868018,11.8488028 C13.9525085,11.8110137 14.0279042,11.7507993 14.0942051,11.6683504 C14.1564496,11.5921586 14.2110345,11.5094306 14.2570926,11.4214809 C14.2993833,11.3392229 14.3325792,11.260114 14.3566804,11.1840587 C14.3808725,11.1081943 14.3928776,11.0510336 14.3928776,11.0131491 C14.4048827,10.9876701 14.4137047,10.9499764 14.41998,10.8994001 C14.4258917,10.8487284 14.4471734,10.8106531 14.4831887,10.7855558 C14.5434871,10.7349795 14.6218841,10.7000533 14.7186525,10.6809679 C14.8171035,10.6618824 14.9170261,10.6523947 15.0171431,10.6526261 C15.1196412,10.6526261 15.2194109,10.665127 15.3157246,10.6904151 L15.5329989,10.7474805 C15.5932063,10.7729594 15.6326776,10.8170467 15.6507762,10.8805056 C15.6686929,10.9438691 15.6779696,11.000839 15.6779696,11.0514153 C15.6658735,11.2285277 15.7020708,11.3963837 15.7862884,11.5545061 C15.8708698,11.712724 15.9974691,11.8300991 16.166632,11.9059635 C16.3353401,11.9820188 16.5074133,12.0010088 16.6823968,11.9631243 C16.8573803,11.9252398 17.0051704,11.8364927 17.1258581,11.6971694 C17.1618734,11.6718812 17.2103486,11.646784 17.2706469,11.621305 C17.3310363,11.595826 17.3852411,11.595826 17.4335344,11.621305 C17.5662272,11.684573 17.7050135,11.7922146 17.8498023,11.9441343 C17.9946821,12.0961494 18.0790817,12.2605701 18.1031828,12.4379687 C18.1152789,12.488545 18.1060932,12.5359722 18.0758985,12.5802503 C18.0457948,12.6247193 18.0185104,12.6594547 17.9944093,12.6849337 C17.8617165,12.8113744 17.7742247,12.9633895 17.731934,13.1405019 C17.6897343,13.3176143 17.7048316,13.495013 17.777226,13.6722208 C17.8496204,13.8493332 17.9703081,13.9823584 18.1391072,14.0711054 C18.3079972,14.1597571 18.4769782,14.2041306 18.6458682,14.2041306 C18.7787429,14.1781745 18.8752384,14.2352398 18.9356278,14.3744677 Z M16.1484424,15.4189156 C16.2811352,15.0770963 16.2811352,14.7352769 16.1484424,14.3934576 C16.0156587,14.0516383 15.7924728,13.8046734 15.478794,13.6527537 C15.1530191,13.5135258 14.8242429,13.5135258 14.4923745,13.6527537 C14.1605061,13.7919816 13.9282255,14.0262548 13.7955327,14.3553823 C13.6507438,14.6972016 13.6296439,15.0548618 13.732233,15.4283628 C13.8348221,15.8018639 14.0610092,16.0644788 14.4108853,16.2163985 L14.4470825,16.1595241 C14.7970495,16.3241355 15.1318282,16.3272846 15.4516006,16.1689713 C15.771282,16.0107535 16.0036536,15.7607349 16.1484424,15.4189156 Z M11.658442,10.9118056 C11.04027,10.4367703 10.3351519,10.0821638 9.57646563,9.84769982 C11.0664629,9.09506752 12.102358,7.51088485 12.102358,5.66017473 C12.102358,3.08641467 10.1145126,1 7.66174223,1 C5.20906278,1 3.22039885,3.08641467 3.22039885,5.66017473 C3.22039885,7.502201 4.24883623,9.07989464 5.72773791,9.83691657 C2.992029,10.682781 1,13.2727636 1,16.3393084 C1,16.3393084 4.40644871,17.310373 7.77415367,17.310373 C8.6438872,17.310373 9.50816385,17.2423336 10.3127788,17.1420399 C10.028943,16.4602977 9.8823952,15.7243817 9.88232298,14.9804288 C9.88305056,13.3525406 10.5786191,11.9080629 11.658442,10.9118056 Z" id="Shape" fill="#C2D7E6" fill-rule="nonzero"></path>
                </g>
            </g>
        </g>
    </g>
</svg>