<?xml version="1.0" encoding="UTF-8"?>
<svg width="20px" height="20px" viewBox="0 0 20 20" version="1.1" xmlns="http://www.w3.org/2000/svg" xmlns:xlink="http://www.w3.org/1999/xlink">
    <!-- Generator: Sketch 49.1 (51147) - http://www.bohemiancoding.com/sketch -->
    <title>征服服务费</title>
    <desc>Created with Sketch.</desc>
    <defs></defs>
    <g id="Page-1" stroke="none" stroke-width="1" fill="none" fill-rule="evenodd">
        <g id="1-1-0商户列表" transform="translate(-20.000000, -607.000000)">
            <g id="侧边菜单">
                <g id="7-copy-2" transform="translate(0.000000, 590.000000)">
                    <g id="系统管理" transform="translate(20.000000, 17.000000)">
                        <g id="Group-6">
                            <rect id="Rectangle-2" x="0" y="0" width="20" height="20"></rect>
                            <path d="M12.8121429,10.7776181 C13.1426825,10.7776181 13.4005907,11.052688 13.4005907,11.3359445 C13.4005907,11.597261 13.131586,11.871676 12.8121429,11.871676 L10.7297099,11.871676 L10.7297099,12.9195614 C10.7297099,13.1952863 10.5054272,13.4032261 10.1607648,13.4032261 C9.83627785,13.4032261 9.60627881,13.1854624 9.60627881,12.9195614 L9.60627881,11.871676 L7.50770551,11.871676 C7.19229746,11.871676 6.93371665,11.593004 6.93371665,11.3133495 C6.93371665,11.0422092 7.18658111,10.7776181 7.50770551,10.7776181 L9.60627881,10.7776181 L9.60627881,10.2297705 L7.50770551,10.2297705 C7.1751484,10.2297705 6.93371665,9.95993999 6.93371665,9.66685952 C6.93371665,9.40619802 7.19229746,9.13538512 7.50770551,9.13538512 L9.11131007,9.13538512 L7.33486996,6.41612239 C7.25954865,6.32050284 7.2346657,6.14007006 7.26761879,6.0218555 C7.30830576,5.88039096 7.4323842,5.75955667 7.60925482,5.69013425 C7.88229462,5.59189499 8.21619677,5.68129272 8.36246809,5.87842618 L10.1769051,8.59015722 L11.9738568,5.87384168 C12.1255082,5.65182094 12.4963985,5.56504293 12.7516168,5.69668354 C12.8420696,5.7235356 12.9093208,5.78149677 12.9685019,5.85583115 L12.976572,5.79819745 L12.976572,5.91379231 C12.976572,5.93442256 13.0286917,5.97044362 13.0357531,5.99205626 C13.0801388,6.11551025 13.0912353,6.26647125 13.0128877,6.37813655 L12.8235756,6.68333317 L11.2361113,9.13538512 L12.8121429,9.13538512 C13.1369661,9.13538512 13.4005907,9.41503956 13.4005907,9.68879962 C13.4005907,9.96059492 13.1426825,10.2297705 12.8121429,10.2297705 L10.7297099,10.2297705 L10.7297099,10.7776181 L12.8121429,10.7776181 Z M3.00059561,2.99999982 L3.00847455,16.2284375 L3.00847455,16.627815 C2.95440166,17.2175968 3.3793006,18 4.07826363,18 C4.99750248,18 5.08601123,16.7048636 5.97109877,16.6391784 L6.10400421,16.6391784 C6.97059313,16.7043093 7.04401841,17.880547 7.88613225,17.9808764 C7.92312948,17.9853108 7.95215807,18 7.99228584,18 C8.03184441,18 8.0614422,17.9853108 8.09758564,17.9808764 C8.93799192,17.880547 9.01170179,16.7043093 9.87715234,16.6391784 L10.0151805,16.6391784 C10.882054,16.7043093 10.9557638,17.880547 11.7967393,17.9808764 C11.8334519,17.9853108 11.8624805,18 11.9028929,18 C11.9424515,18 11.9720493,17.9853108 12.0087619,17.9808764 C12.8497374,17.880547 12.9245856,16.7043093 13.7911745,16.6391784 L13.9955131,16.6391784 C14.7334655,16.7032007 14.8808852,17.5878733 15.4754022,17.8930189 C16.2879183,18.3101342 17.0506304,17.3844429 16.9962729,16.6391784 L17.0002572,16.5906765 L17.0002572,16.2284375 L17,3 C16.99999,2.44772231 16.5522777,2.00001808 16,2.00001808 L4,1.99940457 C3.44771525,1.99940457 3,2.44711982 3,2.99940457 C3,2.99960311 3.00000006,2.99980164 3.00000018,3.00000018 Z" id="Shape" fill="#C2D7E6" fill-rule="nonzero"></path>
                        </g>
                    </g>
                </g>
            </g>
        </g>
    </g>
</svg>