<?xml version="1.0" encoding="UTF-8"?>
<svg width="20px" height="20px" viewBox="0 0 20 20" version="1.1" xmlns="http://www.w3.org/2000/svg" xmlns:xlink="http://www.w3.org/1999/xlink">
    <!-- Generator: Sketch 48.2 (47327) - http://www.bohemiancoding.com/sketch -->
    <title>Rectangle 2@2x</title>
    <desc>Created with Sketch.</desc>
    <defs></defs>
    <g id="1-0商户列表" stroke="none" stroke-width="1" fill="none" fill-rule="evenodd" transform="translate(-20.000000, -105.000000)">
        <g id="侧边菜单">
            <g id="1" transform="translate(0.000000, 90.000000)">
                <g id="商户管理">
                    <g transform="translate(20.000000, 15.000000)">
                        <path d="M3.07513825,3.39186536 L17.0411662,3.39186536 C17.2852603,3.38822554 17.4822577,3.19095411 17.4858924,2.94652044 C17.4858924,2.70689323 17.2861494,2.5 17.0411662,2.5 L3.07513825,2.5 C2.83059465,2.50365517 2.63341749,2.70162784 2.63041205,2.94652044 C2.63285819,3.19145584 2.83054314,3.38941582 3.07513825,3.39186536 Z M3.63391301,16.5917982 L3.63391301,12.4457048 L3.63391301,12.4443485 C3.62700466,12.1198103 3.35868097,11.8623276 3.03459367,11.8692431 C2.71085668,11.8629358 2.44317114,12.1203524 2.43635792,12.4445293 L2.43635792,17.1673556 C2.44331539,17.4918581 2.71162448,17.7492864 3.03567727,17.7423705 L9.93231956,17.7423705 C9.70709603,17.3821598 9.52666481,16.9957427 9.39503613,16.5917077 L3.63391301,16.5917077 L3.63391301,16.5917982 Z M14.4462227,7.74132532 C14.4462227,8.90898803 15.4315734,9.85393308 16.6472788,9.85393308 C17.8618102,9.85393308 18.8471609,8.90898803 18.8471609,7.74250085 C18.8483348,7.41696954 18.7648076,7.11295947 18.629358,6.83824722 L18.6281841,6.83707169 L17.4091376,3.83721027 L2.68693969,3.83721027 L1.46789326,6.83707169 C1.32666136,7.11726555 1.2520854,7.4263832 1.25,7.74024022 C1.25,8.90898803 2.23426712,9.85393308 3.44988215,9.85501818 C4.66441359,9.85501818 5.64868071,8.90898803 5.64868071,7.74132532 C5.64868071,8.90898803 6.63412172,9.85393308 7.84865316,9.85393308 C9.06210101,9.85393308 10.0474517,8.91007314 10.0474517,7.74358595 C10.0486256,8.91007314 11.0339763,9.85501818 12.2473339,9.85501818 C13.4618653,9.85501818 14.4462227,8.90898803 14.4462227,7.74132532 Z M17.1616261,13.1203685 C16.9085159,12.6848799 16.9903275,12.1568862 17.3144132,11.8057645 C16.8674284,11.3788629 16.3252355,11.0648431 15.7328134,10.8897556 C15.5799378,11.3585812 15.1417968,11.6745445 14.6493068,11.6711212 C14.1566763,11.6704433 13.7213776,11.3499384 13.573837,10.8792663 C12.9800872,11.0485226 12.4351998,11.3571183 11.984381,11.7794508 C12.3058481,12.1331044 12.3822417,12.66363 12.1266031,13.096677 C11.8709646,13.5294528 11.367363,13.7273939 10.8954565,13.621958 C10.8197634,13.9179036 10.7799553,14.2219042 10.776893,14.5273871 C10.7744549,14.8389025 10.8164443,15.1425509 10.8877811,15.4327259 C11.3595972,15.332625 11.8603995,15.5330076 12.1134194,15.968677 C12.3665295,16.4041655 12.284718,16.9321592 11.9605419,17.2832809 C12.4075756,17.7101641 12.9497929,18.02418 13.5422321,18.1992898 C13.6950832,17.7304464 14.1332395,17.4144721 14.6257386,17.4179243 C15.1183597,17.418631 15.5536431,17.7391248 15.7012085,18.2097792 C16.2949434,18.0404873 16.8398229,17.7318961 17.2906644,17.3095947 C16.9691973,16.9559411 16.8928038,16.4254155 17.148352,15.9923684 C17.4040809,15.5596831 17.9076825,15.3615611 18.3795889,15.4671779 C18.4552763,15.1712005 18.4950842,14.8671706 18.4981525,14.5616583 C18.5006808,14.250143 18.4586012,13.946585 18.3873547,13.6562292 C17.9155386,13.7564205 17.4147362,13.5560379 17.1616261,13.1203685 Z M14.6335044,16.0134375 C13.8137634,16.0108152 13.1521372,15.3509813 13.1546656,14.5378765 C13.1572843,13.7273939 13.8267665,13.0728952 14.6466881,13.0755175 C15.4666097,13.0781398 16.1281456,13.7380641 16.1256172,14.5510786 C16.1203798,15.3641834 15.450717,16.0160599 14.6335044,16.0134375 Z" id="Shape" fill="#C2D7E6" fill-rule="nonzero"></path>
                        <rect id="Rectangle-2" x="0" y="0" width="20" height="20"></rect>
                    </g>
                </g>
            </g>
        </g>
    </g>
</svg>