<?xml version="1.0" encoding="UTF-8"?>
<svg width="14px" height="14px" viewBox="0 0 14 14" version="1.1" xmlns="http://www.w3.org/2000/svg" xmlns:xlink="http://www.w3.org/1999/xlink">
    <!-- Generator: Sketch 48.2 (47327) - http://www.bohemiancoding.com/sketch -->
    <title>Rectangle 15@2x</title>
    <desc>Created with Sketch.</desc>
    <defs></defs>
    <g id="1-0商户列表" stroke="none" stroke-width="1" fill="none" fill-rule="evenodd" transform="translate(-200.000000, -23.000000)">
        <g id="顶部菜单" transform="translate(180.000000, 0.000000)">
            <g id="系统消息" transform="translate(20.000000, 23.000000)">
                <rect id="Rectangle-15" x="0" y="0" width="14" height="14"></rect>
                <path d="M1.23909192,9.2241701 C1.22301231,9.25137205 1.20744718,9.27526543 1.18909476,9.29962554 C1.16667957,9.32823811 1.16667957,9.32823811 1.14310765,9.354156 C1.12985352,9.36731167 1.12088833,9.37621026 1.11603167,9.3808348 C1.0168914,9.50528611 0.713471279,9.89070602 0.655761425,9.95762884 C0.611077072,10.0169407 0.587279671,10.0530206 0.536689204,10.1391211 C0.553306387,10.163956 0.568284678,10.1897871 0.581213344,10.217009 C0.615154176,10.268754 0.64193674,10.324894 0.657909226,10.388938 C0.667574149,10.4065781 0.681268335,10.4202926 0.719891499,10.4588963 C0.745846478,10.4895198 0.769533265,10.5 0.830769231,10.5 L13.0974359,10.5 C13.38005,10.5 13.4918971,10.4070161 13.4995725,10.2223572 C13.4818996,10.2108773 13.3686665,10.0729491 12.8816168,9.49781927 C12.8580361,9.48291906 12.8346859,9.46567476 12.8122428,9.44581484 C12.7479135,9.38888978 12.7041053,9.32309467 12.6757397,9.26094313 C12.6355711,9.21321662 12.5850583,9.15740647 12.5046724,9.07046548 C12.354841,8.90841595 12.2876031,8.83191737 12.205777,8.72330541 L12.1698128,8.66841068 C12.1701795,8.66905979 12.1691404,8.66798704 12.0686531,8.57906567 L11.9029504,8.43243521 L11.9000432,8.21119007 L11.8589744,5.08250825 C11.8589744,3.54152924 11.0486675,2.51502792 9.13588188,1.93030262 L8.87504093,1.85056535 L8.8008851,1.58808307 C8.61833262,0.941919599 7.95841112,0.5 7.10769231,0.5 C6.25697349,0.5 5.597052,0.941919599 5.41449952,1.58808307 L5.33898101,1.85538868 L5.07212904,1.93249483 C3.23105114,2.46446925 1.94615385,3.7236339 1.94615385,4.9009901 L1.94615385,8.4298244 L1.77833577,8.57832512 L1.77750078,8.57906567 C1.75393495,8.59991909 1.75962004,8.59363066 1.75839236,8.59580342 L1.69397505,8.68514764 C1.64548743,8.73878107 1.59426835,8.79888824 1.52385186,8.88407991 C1.49382488,8.92047643 1.49382488,8.92047643 1.46320274,8.95773532 C1.35683312,9.08715937 1.29887512,9.15657676 1.23909192,9.2241701 Z M0.530279399,10.1500521 C0.522847504,10.16275 0.514847598,10.1764954 0.50614736,10.1914917 C0.500261435,10.2001725 0.498602216,10.1441262 0.501169704,10.1163144 C0.508384118,10.1242839 0.517192316,10.1345563 0.530279399,10.1500521 Z M0.501169704,10.1163144 C0.501645756,10.1111577 0.502267116,10.1069716 0.503033786,10.1043488 L0.495085201,10.1097382 C0.497019488,10.1117778 0.499024112,10.1139443 0.501169704,10.1163144 Z M0.503033786,10.1043488 C0.503890287,10.1014186 0.504928145,10.1004395 0.50614736,10.1022376 L0.503033574,10.1043489 Z M0.495085201,10.1097382 L0.355497387,10.2043846 L0.464680265,10.0810003 C0.478284313,10.0932141 0.485890002,10.1000425 0.495085201,10.1097382 Z M0.625539089,10.3580978 C0.630622419,10.3886676 0.633333333,10.4210084 0.633333333,10.4554455 L0.367109685,10.4554455 L0.625539089,10.3580978 Z M13.4999998,10.2017543 C13.4999999,10.2016096 13.5,10.2014649 13.5,10.2013201 C13.4999907,10.2013682 13.499986,10.2014666 13.4999859,10.2016123 Z M-0.295374059,10.694264 L-0.295619258,10.6929175 L-0.298906402,10.689178 C-0.297739166,10.690884 -0.296561588,10.6925792 -0.295374059,10.694264 Z M-0.295470629,10.6930866 C-0.295112225,10.6939468 -0.294751151,10.694804 -0.294387436,10.6956582 C-0.291813025,10.6992817 -0.289192783,10.7028576 -0.286530656,10.7063912 C-0.259636289,10.738659 -0.259636289,10.738659 -0.239039239,10.7572835 L-0.295470629,10.6930866 Z" id="Shape" stroke="#FFFFFF" fill-rule="nonzero"></path>
                <path d="M4.17325723,10.5387118 C4.70765305,12.1669811 5.82926421,13.25 7.41463211,13.25 C9,13.25 10.0828259,12.2124511 10.615667,10.6416129" id="Oval" stroke="#FFFFFF"></path>
            </g>
        </g>
    </g>
</svg>