<?xml version="1.0" encoding="UTF-8"?>
<svg width="20px" height="20px" viewBox="0 0 20 20" version="1.1" xmlns="http://www.w3.org/2000/svg" xmlns:xlink="http://www.w3.org/1999/xlink">
    <!-- Generator: Sketch 49.1 (51147) - http://www.bohemiancoding.com/sketch -->
    <title>运营管理</title>
    <desc>Created with Sketch.</desc>
    <defs></defs>
    <g id="Page-1" stroke="none" stroke-width="1" fill="none" fill-rule="evenodd">
        <g id="1-1-0商户列表" transform="translate(-20.000000, -557.000000)">
            <g id="侧边菜单">
                <g id="7-copy" transform="translate(0.000000, 540.000000)">
                    <g id="系统管理" transform="translate(20.000000, 17.000000)">
                        <g id="Group-6">
                            <rect id="Rectangle-2" x="0" y="0" width="20" height="20"></rect>
                            <path d="M16.9172401,11.9640431 C17.3499606,9.28467756 16.2758773,6.58378693 14.132698,4.9620311 C13.9809535,4.84407249 13.7784281,4.81834806 13.6027755,4.89472124 C13.4271229,4.97109443 13.3056002,5.13771398 13.2848024,5.33069343 C13.2640046,5.52367288 13.3471591,5.71306652 13.5023822,5.82625568 C15.0431434,6.99215464 15.9518313,8.82867207 15.9537674,10.7806651 C15.9537674,11.0854746 15.9269455,11.3852637 15.884595,11.682184 C14.7197568,11.684955 13.777387,12.6461245 13.7790741,13.8297086 C13.7807613,15.0132926 14.7258674,15.9716843 15.8907086,15.9710267 C17.0555498,15.9703691 17.9996072,15.0109109 18,13.8273257 C17.9983385,13.0526738 17.5840052,12.3396625 16.9172401,11.9640431 Z M3.41379906,10.4191969 C3.70339209,10.4582312 3.96936628,10.2515285 4.00811704,9.95732086 C4.3118285,7.66421881 5.8580251,5.73911571 8.00811708,4.97709228 C8.41838666,5.96784337 9.48696447,6.49711046 10.5077865,6.21517974 C11.5286086,5.93324902 12.1864789,4.92717136 12.0467088,3.86171369 C11.9069388,2.79625603 11.0126848,2.00039642 9.95482612,2 C8.88794506,2.00221483 7.99143276,2.81515652 7.86836059,3.89197048 C5.30615835,4.70885992 3.32909816,6.98309737 2.95923757,9.81603268 C2.94079734,9.95726596 2.97832906,10.1001579 3.06357605,10.2132733 C3.14882304,10.3263888 3.27480219,10.4004618 3.41379906,10.4191969 Z M12.4302099,16.3784018 C11.6532429,16.7404873 10.8082009,16.926946 9.95341444,16.9249073 C8.37091927,16.9249073 6.89571193,16.2772768 5.79742357,15.1943066 C6.05999636,14.8364244 6.22092807,14.3974987 6.22092807,13.9169755 C6.22053824,12.7328294 5.27562211,11.7731364 4.11022877,11.7732684 C2.94483543,11.7734004 2.00012994,12.7333076 2,13.9174537 C1.99987006,15.1015999 2.94436484,16.0617211 4.10975812,16.0621172 C4.41821057,16.0621172 4.709017,15.9911145 4.97300148,15.8706251 C6.27386615,17.2003117 8.0462325,17.9999884 9.95412027,17.9999884 C10.9605136,18.0018397 11.9554095,17.7826308 12.8706546,17.3573782 C13.0427625,17.2774343 13.1598225,17.1102672 13.1777394,16.9188471 C13.1956563,16.7274269 13.111708,16.5408351 12.9575171,16.4293589 C12.8033261,16.3178826 12.6023178,16.2984579 12.4302099,16.3784018 Z" id="Shape" fill="#C2D7E6" fill-rule="nonzero"></path>
                        </g>
                    </g>
                </g>
            </g>
        </g>
    </g>
</svg>