<?xml version="1.0" encoding="UTF-8"?>
<svg width="20px" height="20px" viewBox="0 0 20 20" version="1.1" xmlns="http://www.w3.org/2000/svg" xmlns:xlink="http://www.w3.org/1999/xlink">
    <!-- Generator: Sketch 49.1 (51147) - http://www.bohemiancoding.com/sketch -->
    <title>逾期回收</title>
    <desc>Created with Sketch.</desc>
    <defs></defs>
    <g id="Page-1" stroke="none" stroke-width="1" fill="none" fill-rule="evenodd">
        <g id="1-1-0商户列表" transform="translate(-20.000000, -707.000000)">
            <g id="侧边菜单">
                <g id="7-copy-4" transform="translate(0.000000, 690.000000)">
                    <g id="系统管理" transform="translate(20.000000, 17.000000)">
                        <g id="Group-6">
                            <rect id="Rectangle-2" x="0" y="0" width="20" height="20"></rect>
                            <path d="M4.28571429,6.57142857 L2.57142857,6.57142857 C2.22857143,6.57142857 2,6.34285714 2,6 L2,4.85714286 C2,4.51428571 2.22857143,4.28571429 2.57142857,4.28571429 L6.57142857,4.28571429 L6.57142857,2.57142857 C6.57142857,2.22857143 6.8,2 7.14285714,2 L12.8571429,2 C13.2,2 13.4285714,2.22857143 13.4285714,2.57142857 L13.4285714,4.28571429 L17.4285714,4.28571429 C17.7714286,4.28571429 18,4.51428571 18,4.85714286 L18,6 C18,6.34285714 17.7714286,6.57142857 17.4285714,6.57142857 L15.7142857,6.57142857 L15.7142857,17.4285714 C15.7142857,17.7714286 15.4857143,18 15.1428571,18 L4.85714286,18 C4.51428571,18 4.28571429,17.7714286 4.28571429,17.4285714 L4.28571429,6.57142857 Z M8,3 L8,4 L12,4 L12,3 L8,3 Z M7,8 L7,16 L8,16 L8,8 L7,8 Z M12,8 L12,16 L13,16 L13,8 L12,8 Z" id="Shape" fill="#C2D7E6" fill-rule="nonzero"></path>
                        </g>
                    </g>
                </g>
            </g>
        </g>
    </g>
</svg>