<?xml version="1.0" encoding="UTF-8"?>
<svg width="20px" height="20px" viewBox="0 0 20 20" version="1.1" xmlns="http://www.w3.org/2000/svg" xmlns:xlink="http://www.w3.org/1999/xlink">
    <!-- Generator: Sketch 48.2 (47327) - http://www.bohemiancoding.com/sketch -->
    <title>Rectangle 2@2x</title>
    <desc>Created with Sketch.</desc>
    <defs></defs>
    <g id="1-0商户列表" stroke="none" stroke-width="1" fill="none" fill-rule="evenodd" transform="translate(-20.000000, -456.000000)">
        <g id="侧边菜单">
            <g id="6" transform="translate(0.000000, 440.000000)">
                <g id="商户管理" transform="translate(20.000000, 16.000000)">
                    <rect id="Rectangle-2" x="0" y="0" width="20" height="20"></rect>
                    <path d="M19,13.6762226 L19,16.232715 C19,16.6559865 18.5691658,17 18.0348469,17 L14.8225977,17 C14.2903907,17 13.8574446,16.6559865 13.8574446,16.232715 L13.8574446,13.6762226 C13.8574446,13.2529511 14.2882788,12.9089376 14.8225977,12.9089376 L15.7877508,12.9089376 L15.7877508,10.5109612 L10.6430834,10.5109612 L10.6430834,12.9089376 L11.6082365,12.9089376 C12.1404435,12.9089376 12.5733897,13.2529511 12.5733897,13.6762226 L12.5733897,16.232715 C12.5733897,16.6559865 12.1425554,17 11.6082365,17 L8.3938754,17 C7.86166843,17 7.42872228,16.6559865 7.42872228,16.232715 L7.42872228,13.6762226 C7.42872228,13.2529511 7.85955649,12.9089376 8.3938754,12.9089376 L9.35902851,12.9089376 L9.35902851,10.5109612 L4.21436114,10.5109612 L4.21436114,12.9089376 L5.17951426,12.9089376 C5.71172122,12.9089376 6.14466737,13.2529511 6.14466737,13.6762226 L6.14466737,16.232715 C6.14466737,16.6559865 5.71383316,17 5.17951426,17 L1.96515312,17 C1.43294615,17 1,16.6559865 1,16.232715 L1,13.6762226 C1,13.2529511 1.43083421,12.9089376 1.96515312,12.9089376 L2.93030623,12.9089376 L2.93030623,10.5109612 C2.93030623,9.95109612 3.51319958,9.48903879 4.21647307,9.48903879 L9.35902851,9.48903879 L9.35902851,7.09106239 L8.3938754,7.09106239 C7.86166843,7.09106239 7.42872228,6.7470489 7.42872228,6.3237774 L7.42872228,3.76728499 C7.42872228,3.34401349 7.85955649,3 8.3938754,3 L11.6082365,3 C12.1404435,3 12.5733897,3.34401349 12.5733897,3.76728499 L12.5733897,6.3237774 C12.5733897,6.7470489 12.1425554,7.09106239 11.6082365,7.09106239 L10.6430834,7.09106239 L10.6430834,9.48903879 L15.7856389,9.48903879 C16.4889124,9.48903879 17.0718057,9.95278246 17.0718057,10.5109612 L17.0718057,12.9089376 L18.0369588,12.9089376 C18.5691658,12.9089376 19,13.2529511 19,13.6762226 Z" id="Shape" fill="#C2D7E6" fill-rule="nonzero"></path>
                </g>
            </g>
        </g>
    </g>
</svg>