<?xml version="1.0" encoding="UTF-8"?>
<svg width="20px" height="20px" viewBox="0 0 20 20" version="1.1" xmlns="http://www.w3.org/2000/svg" xmlns:xlink="http://www.w3.org/1999/xlink">
    <!-- Generator: Sketch 48.2 (47327) - http://www.bohemiancoding.com/sketch -->
    <title>Rectangle 2@2x</title>
    <desc>Created with Sketch.</desc>
    <defs></defs>
    <g id="1-0商户列表" stroke="none" stroke-width="1" fill="none" fill-rule="evenodd" transform="translate(-20.000000, -506.000000)">
        <g id="侧边菜单">
            <g id="7" transform="translate(0.000000, 490.000000)">
                <g id="商户管理" transform="translate(20.000000, 16.000000)">
                    <rect id="Rectangle-2" x="0" y="0" width="20" height="20"></rect>
                    <path d="M15.2303003,6.89155883 C14.7058194,5.94103643 14.8753448,4.78860695 15.5468974,4.02222853 C14.6206801,3.09044832 13.4971778,2.40505078 12.2695934,2.02289464 C11.9528132,3.0461803 11.0449214,3.73582009 10.024411,3.72834816 C9.00360904,3.72686865 8.10160712,3.0273161 7.79588167,2 C6.5655461,2.36942873 5.43646048,3.04298738 4.50229874,3.96479455 C5.16842504,4.73669927 5.3267236,5.89465504 4.7970035,6.83984852 C4.26728339,7.7844499 3.22374789,8.2164876 2.24588944,7.98635696 C2.08904233,8.63230493 2.00655423,9.29583424 2.00020859,9.96259884 C1.9951565,10.6425303 2.08216458,11.3052907 2.22998474,11.9386433 C3.20765607,11.7201574 4.24539104,12.157524 4.76968483,13.1084412 C5.29416574,14.0589636 5.12464034,15.211393 4.45290061,15.9777715 C5.37921925,16.9095113 6.50277203,17.5949006 7.73039172,17.9771054 C8.04712142,16.9537807 8.95504469,16.264117 9.97557417,16.2716518 C10.9963564,16.2731945 11.8983268,16.9727225 12.2041035,18 C13.4344083,17.6304937 14.5634775,16.9569448 15.4976864,16.0352054 C14.8315601,15.2633007 14.6732615,14.105345 15.2027945,13.1601515 C15.7327017,12.2157475 16.7762372,11.783315 17.7540957,12.0138404 C17.9109309,11.3678229 17.9934187,10.7042298 17.9997765,10.0374012 C18.0050157,9.35746975 17.9178206,8.69490668 17.7701875,8.06115929 C16.7925162,8.2798426 15.7547812,7.84247598 15.2303003,6.89155883 Z M10.057843,13.6722647 C8.35922091,13.666541 6.98823567,12.2263496 6.99347487,10.45162 C6.99890118,8.68261417 8.38616534,7.25406741 10.0851616,7.25979107 C11.784158,7.26551473 13.1549561,8.70590354 13.1497169,10.4804357 C13.1388643,12.2551653 11.7512259,13.6779884 10.057843,13.6722647 Z" id="Shape" fill="#C2D7E6" fill-rule="nonzero"></path>
                </g>
            </g>
        </g>
    </g>
</svg>