<?xml version="1.0" encoding="UTF-8"?>
<svg width="20px" height="20px" viewBox="0 0 20 20" version="1.1" xmlns="http://www.w3.org/2000/svg" xmlns:xlink="http://www.w3.org/1999/xlink">
    <!-- Generator: Sketch 49.1 (51147) - http://www.bohemiancoding.com/sketch -->
    <title>新老用户转化</title>
    <desc>Created with Sketch.</desc>
    <defs></defs>
    <g id="Page-1" stroke="none" stroke-width="1" fill="none" fill-rule="evenodd">
        <g id="1-1-0商户列表" transform="translate(-20.000000, -657.000000)">
            <g id="侧边菜单">
                <g id="7-copy-3" transform="translate(0.000000, 640.000000)">
                    <g id="Group-6" transform="translate(20.000000, 17.000000)">
                        <rect id="Rectangle-2" x="0" y="0" width="20" height="20"></rect>
                        <path d="M11.0291252,11.1104132 C8.98554602,11.7650919 7.5,13.7482396 7.5,16.093053 C7.5,16.961322 7.70369392,17.7800003 8.06398861,18.5 C4.76621355,18.4596258 1.5,17.4890958 1.5,17.4890958 C1.5,14.2926493 3.492029,11.5929526 6.22773791,10.7112566 C4.74883623,9.92216648 3.72039885,8.27764028 3.72039885,6.35758406 C3.72039885,3.67479713 5.70906278,1.5 8.16174223,1.5 C10.6145126,1.5 12.602358,3.67479713 12.602358,6.35758406 C12.602358,8.28669198 11.5664629,9.93798211 10.0764656,10.7224966 C10.4049646,10.8283162 10.723421,10.9576137 11.0291252,11.1104132 Z M10.9978094,13.5414953 C11.791043,12.7188707 12.9806499,11.484668 14.5666302,9.83888744 L15.5,10.8572391 C13.9128027,12.5031525 12.7231958,13.7384842 11.9311793,14.5632342 C12.2128514,14.8696761 12.4934283,15.1775128 12.7741877,15.4847518 C11.6827309,15.6875853 10.5916393,15.890618 9.5,16.093053 C9.71686747,14.9390141 9.93483023,13.7849752 10.1518802,12.6309363 L10.1639284,12.6311356 C10.4428624,12.9335926 10.7192406,13.2386398 10.9978094,13.5414953 Z M15.2203552,12.5336356 C16.3135701,12.3302935 17.4066026,12.1267521 18.5,11.9236093 C18.2830358,13.079071 18.0657066,14.2345326 17.8480125,15.3899943 C17.564262,15.0853799 17.2836136,14.7773764 17.001323,14.4713664 C15.8121255,15.7067694 14.6229281,16.9429699 13.4331833,18.1777749 C13.1218789,17.8384726 12.810392,17.4995691 12.5,17.1594694 C13.6884675,15.9240664 14.8774824,14.6892614 16.0663149,13.4544565 C15.7845716,13.1472504 15.501551,12.8414398 15.2203552,12.5336356 Z" id="Combined-Shape" fill="#C2D7E6" fill-rule="nonzero"></path>
                    </g>
                </g>
            </g>
        </g>
    </g>
</svg>